<svg width="1280" height="1027" xmlns="http://www.w3.org/2000/svg"
    xmlns:svg="http://www.w3.org/2000/svg" preserveAspectRatio="xMidYMid meet">
    <metadata>Created by potrace 1.15, written by Peter Selinger 2001-2017</metadata>
    <g class="layer">
        <title>Layer 1</title>
        <g fill="#000000" id="svg_1" transform="translate(0 1027) scale(0.1 -0.1)">
            <path
                d="m3530,10174c-1095,-673 -2073,-1528 -2680,-2344c-731,-983 -996,-1953 -770,-2817c224,-857 1024,-1661 2102,-2113c134,-56 158,-60 158,-24c0,7 -42,48 -92,91c-349,295 -642,568 -832,773c-178,193 -179,194 -315,369c-597,769 -774,1627 -509,2461c323,1013 1249,2167 2623,3265c180,144 455,353 490,372c14,8 14,14 4,36c-7,15 -15,27 -18,26c-3,0 -76,-43 -161,-95z"
                fill="#007f00" id="svg_2" />
            <path
                d="m9040,10240c-6,-11 -9,-24 -6,-29c3,-4 78,-61 167,-126c721,-528 1488,-1237 2006,-1857c459,-548 812,-1135 966,-1603c104,-314 135,-482 144,-766c13,-425 -62,-781 -249,-1179c-252,-534 -690,-1038 -1481,-1704l-128,-108l-25,17c-81,53 -154,163 -194,290c-102,326 35,940 378,1700c140,312 206,509 257,772c41,211 57,604 35,848c-62,670 -365,1385 -838,1979c-91,114 -457,494 -467,484c-3,-3 23,-54 56,-114c84,-150 214,-411 304,-608c475,-1050 596,-1968 369,-2801c-14,-49 -72,-229 -129,-400c-102,-304 -153,-486 -195,-694c-11,-58 -21,-106 -23,-107c-1,-1 -47,-35 -102,-77c-201,-151 -348,-299 -450,-452c-112,-169 -141,-252 -175,-512c-32,-243 -71,-373 -133,-440c-11,-13 -18,-26 -14,-29c3,-4 35,22 70,57c83,84 127,173 172,354c63,250 78,299 111,365c41,83 133,223 214,325c89,111 292,346 297,342c2,-2 -2,-49 -8,-103c-16,-131 -16,-408 0,-511c47,-318 179,-550 370,-652c31,-16 73,-32 93,-36c21,-4 42,-13 48,-20c14,-17 178,49 412,166c220,110 293,152 493,285c229,151 410,298 591,479c403,402 640,800 759,1275c46,186 59,300 59,535c0,345 -38,579 -150,920c-234,707 -676,1370 -1383,2075c-567,565 -1285,1123 -2001,1557c-223,135 -207,127 -220,103z"
                fill="#007f00" id="svg_3" />
            <path
                d="m3085,8846c-266,-250 -524,-583 -718,-926c-446,-792 -585,-1649 -392,-2429c51,-204 107,-361 215,-601c192,-427 330,-836 392,-1165c29,-156 31,-403 5,-510c-35,-138 -110,-260 -201,-328l-41,-30l33,6c103,20 257,145 331,270c71,121 122,289 142,474c12,108 7,360 -9,491c-5,34 -7,62 -6,62c8,0 266,-308 330,-392c83,-111 177,-266 200,-330c8,-24 33,-115 55,-203c51,-208 63,-244 112,-338c28,-54 56,-93 95,-127c63,-56 87,-66 47,-19c-64,77 -96,180 -129,421c-40,284 -62,352 -165,508c-117,179 -254,319 -476,487l-80,60l-19,99c-37,198 -89,386 -196,704c-155,465 -202,661 -231,974c-15,160 -6,556 15,716c92,676 362,1422 787,2176c17,30 27,54 22,54c-4,0 -57,-47 -118,-104z"
                fill="#007f00" id="svg_4" />
            <path
                d="m4135,6800c-206,-32 -456,-162 -605,-315l-65,-66l85,52c161,99 369,185 535,221c33,7 125,12 205,12c128,0 157,-3 245,-27c127,-35 272,-105 399,-191c96,-65 97,-66 67,-27c-115,146 -314,274 -496,321c-92,24 -279,34 -370,20z"
                fill="#007f00" id="svg_5" />
            <path
                d="m8215,6791c-123,-29 -228,-73 -326,-140c-57,-38 -169,-141 -210,-192c-31,-39 -31,-39 65,26c288,195 545,259 837,209c162,-28 403,-126 565,-229c137,-88 -16,59 -167,161c-184,123 -338,174 -549,179c-106,3 -152,0 -215,-14z"
                fill="#007f00" id="svg_6" />
            <path
                d="m4226,6460c-90,-15 -212,-57 -311,-108l-90,-47l3,-60c12,-220 111,-448 251,-577c73,-68 127,-100 226,-133c181,-61 408,-35 619,72c59,30 65,24 67,-62c0,-33 4,-82 8,-110c5,-43 8,-31 18,90c39,470 -158,829 -502,920c-76,20 -213,27 -289,15z"
                fill="#007f00" id="svg_7" />
            <path
                d="m8385,6463c-237,-33 -430,-189 -524,-424c-32,-80 -68,-241 -73,-329c-3,-65 12,-313 19,-306c3,2 9,53 13,111c5,59 11,109 13,111c2,2 39,-12 82,-31c151,-69 234,-88 380,-89c114,0 140,3 211,27c259,86 430,328 475,670c8,67 8,91 -1,102c-18,22 -187,101 -265,124c-118,34 -237,47 -330,34z"
                fill="#007f00" id="svg_8" />
            <path
                d="m4133,3710c-72,-198 -150,-488 -207,-765c-138,-679 -151,-1303 -35,-1775c125,-508 404,-823 803,-904c216,-44 560,1 802,104l46,20l64,-60c207,-194 537,-330 799,-330c264,0 595,136 797,328l57,54l133,-45c199,-68 331,-91 513,-91c123,0 166,4 240,23c387,99 649,404 770,895c50,205 67,350 72,635c10,470 -41,896 -168,1409c-47,194 -164,572 -175,572c-7,0 -2,-69 31,-425c72,-768 82,-1389 29,-1795c-84,-651 -306,-990 -701,-1072c-82,-17 -121,-19 -238,-15c-302,12 -604,96 -1102,308c-89,38 -165,69 -170,69c-12,0 161,-126 287,-209c63,-41 192,-115 285,-163l170,-87l-130,-62c-142,-67 -314,-127 -446,-156c-63,-13 -127,-18 -254,-18c-190,0 -255,11 -440,71c-120,39 -377,153 -381,169c-1,6 63,42 144,82c179,88 446,257 567,359l30,25l-35,-14c-19,-8 -111,-47 -205,-87c-518,-218 -909,-311 -1190,-280c-123,13 -185,30 -283,78c-86,42 -204,146 -264,235c-287,422 -349,1257 -202,2715c14,140 24,261 22,270c-2,10 -18,-21 -35,-68z"
                fill="#007f00" id="svg_9" />
            <path
                d="m6115,2699c-451,-46 -706,-191 -802,-456c-34,-95 -50,-244 -34,-330c33,-182 158,-372 347,-531c341,-286 751,-371 1150,-237c291,98 565,329 695,587c56,111 73,191 65,308c-23,373 -249,574 -727,646c-125,18 -561,27 -694,13z"
                fill="#007f00" id="svg_10" />
            <path d="m4392,1728c-28,-28 -3,-72 39,-66c30,4 47,33 33,56c-14,21 -55,27 -72,10z"
                fill="#007f00" id="svg_11" />
            <path d="m8349,1716c-15,-33 4,-58 39,-54c55,7 54,70 -1,76c-21,3 -30,-3 -38,-22z"
                fill="#007f00" id="svg_12" />
            <path d="m4833,1669c-49,-18 -30,-89 24,-89c26,0 50,38 40,64c-9,22 -39,35 -64,25z"
                fill="#007f00" id="svg_13" />
            <path d="m5188,1668c-30,-23 -27,-62 6,-83c48,-32 100,32 61,75c-21,23 -44,25 -67,8z"
                fill="#007f00" id="svg_14" />
            <path
                d="m7560,1660c-11,-11 -20,-26 -20,-33c0,-51 81,-68 102,-22c9,19 8,29 -6,50c-20,30 -49,32 -76,5z"
                fill="#007f00" id="svg_15" />
            <path d="m7920,1650c-22,-42 13,-80 60,-65c25,8 37,50 20,70c-19,22 -67,19 -80,-5z"
                fill="#007f00" id="svg_16" />
            <path d="m8163,1389c-34,-12 -32,-65 2,-81c21,-9 28,-8 45,7c39,35 1,93 -47,74z"
                fill="#007f00" id="svg_17" />
            <path d="m4590,1371c-20,-38 21,-82 59,-62c44,24 31,81 -19,81c-19,0 -33,-7 -40,-19z"
                fill="#007f00" id="svg_18" />
            <path
                d="m4966,1329c-36,-28 -36,-80 0,-108c15,-12 34,-21 44,-21c34,0 70,39 70,75c0,36 -36,75 -70,75c-10,0 -29,-9 -44,-21z"
                fill="#007f00" id="svg_19" />
            <path d="m7755,1325c-63,-63 18,-160 88,-105c35,28 37,80 5,110c-29,27 -64,25 -93,-5z"
                fill="#007f00" id="svg_20" />
            <path
                d="m5302,1248c-24,-31 -23,-57 2,-83c14,-14 32,-25 41,-25c28,0 67,48 59,73c-11,36 -25,47 -59,47c-18,0 -37,-6 -43,-12z"
                fill="#007f00" id="svg_21" />
            <path
                d="m7425,1244c-25,-25 -16,-75 17,-93c25,-14 29,-14 55,5c34,26 40,48 19,79c-19,29 -66,34 -91,9z"
                fill="#007f00" id="svg_22" />
            <path d="m4753,1020c-44,-18 -38,-91 7,-105c56,-18 96,66 48,99c-25,18 -25,18 -55,6z"
                fill="#007f00" id="svg_23" />
            <path
                d="m8002,1014c-42,-29 -17,-104 35,-104c20,0 53,38 53,60c0,22 -33,60 -53,60c-7,0 -23,-7 -35,-16z"
                fill="#007f00" id="svg_24" />
            <path d="m5112,998c-27,-27 -6,-68 35,-68c29,0 48,33 33,60c-12,22 -49,27 -68,8z"
                fill="#007f00" id="svg_25" />
            <path
                d="m7642,1001c-8,-4 -12,-21 -10,-37c2,-25 7,-29 32,-29c36,0 56,27 40,53c-13,19 -43,26 -62,13z"
                fill="#007f00" id="svg_26" />
        </g>
    </g>
</svg>